# xmcd
#
# Track frame offsets:
#	150
#	57356
#	124886
#	183583
#
# Disc length: 3213 seconds
#
# Revision: 0
# Processed by: cddbd v1.5.2PL0 Copyright (c) Steve Scherf et al.
# Submitted via: EasyCDDAExtractor 15.3.0.1
#
DISCID=360c8b04
DTITLE=Various Artist - Dihavina - Tinh Tu Ke
DYEAR=1999
DGENRE=
TTITLE0=Bang Kieu - Hoa Co Mua Xuan, Chieu Xuan, Xa Roi Tuoi Tho,...
TTITLE1=Tran Thu Ha - Cho Em Mot Ngay, Noi Nho Diu Em, Dong Song Lo Dang,...
TTITLE2=Quang Linh - Toc Duoi Ga, Tinh Co, Hay De Mua Roi,...
TTITLE3=Ngoc Anh - Trong Vang, Chia Tay Tinh Dau, Khoanh Khac,...
EXTD=
EXTT0=
EXTT1=
EXTT2=
EXTT3=
PLAYORDER=
